# xmcd CD database file
#
# Track frame offsets:
#	150
#	19945
#	44650
#	69797
#	100357
#	122162
#	151605
#	170667
#	193415
#	220685
#	243285
#	271520
#	300107
#	323082
#
# Disc length: 4479 seconds
#
# Revision: 1
# Processed by: cddbd v1.5.2PL0 Copyright (c) Steve Scherf et al.
# Submitted via: CDex 1.70beta2
#
DISCID=b4117d0e
DTITLE=槇原　敬之 - LIFE IN DOWNTOWN
DYEAR=1900
DGENRE=Misc
TTITLE0=いつでも帰っておいで
TTITLE1=Naked
TTITLE2=ほんの少しだけfeat.KURO
TTITLE3=星の光
TTITLE4=ウンチャカ
TTITLE5=月の石
TTITLE6=親指を隠さずに
TTITLE7=店じまい
TTITLE8=明けない夜が来ることはない
TTITLE9=チキンライス
TTITLE10=尼崎の夜空を見上げて
TTITLE11=ココロノコンパス
TTITLE12=遠く遠く
TTITLE13=WHAT A WONDERFUL WORLD
EXTD=
EXTT0=
EXTT1=
EXTT2=
EXTT3=
EXTT4=
EXTT5=
EXTT6=
EXTT7=
EXTT8=
EXTT9=
EXTT10=
EXTT11=
EXTT12=
EXTT13=
PLAYORDER=
